<svg xmlns="http://www.w3.org/2000/svg" xmlns:xlink="http://www.w3.org/1999/xlink" contentStyleType="text/css" height="804px" preserveAspectRatio="none" style="width:714px;height:804px;background:#FFFFFF;" version="1.1" viewBox="0 0 714 804" width="714px" zoomAndPan="magnify"><defs/><g><!--class FoodOrderingSystem--><g id="elem_FoodOrderingSystem"><rect codeLine="1" fill="#F1F1F1" height="80.5938" id="FoodOrderingSystem" rx="2.5" ry="2.5" style="stroke:#181818;stroke-width:0.5;" width="178" x="102" y="7"/><ellipse cx="117" cy="23" fill="#ADD1B2" rx="11" ry="11" style="stroke:#181818;stroke-width:1.0;"/><path d="M119.9688,28.6406 Q119.3906,28.9375 118.75,29.0781 Q118.1094,29.2344 117.4063,29.2344 Q114.9063,29.2344 113.5781,27.5938 Q112.2656,25.9375 112.2656,22.8125 Q112.2656,19.6875 113.5781,18.0313 Q114.9063,16.375 117.4063,16.375 Q118.1094,16.375 118.75,16.5313 Q119.4063,16.6875 119.9688,16.9844 L119.9688,19.7031 Q119.3438,19.125 118.75,18.8594 Q118.1563,18.5781 117.5313,18.5781 Q116.1875,18.5781 115.5,19.6563 Q114.8125,20.7188 114.8125,22.8125 Q114.8125,24.9063 115.5,25.9844 Q116.1875,27.0469 117.5313,27.0469 Q118.1563,27.0469 118.75,26.7813 Q119.3438,26.5 119.9688,25.9219 L119.9688,28.6406 Z " fill="#000000"/><text fill="#000000" font-family="sans-serif" font-size="14" lengthAdjust="spacing" textLength="146" x="131" y="27.8467">FoodOrderingSystem</text><line style="stroke:#181818;stroke-width:0.5;" x1="103" x2="279" y1="39" y2="39"/><line style="stroke:#181818;stroke-width:0.5;" x1="103" x2="279" y1="47" y2="47"/><ellipse cx="113" cy="60.6484" fill="#84BE84" rx="3" ry="3" style="stroke:#038048;stroke-width:1.0;"/><text fill="#000000" font-family="sans-serif" font-size="14" lengthAdjust="spacing" textLength="127" x="122" y="63.9951">main(String[] args)</text><ellipse cx="113" cy="76.9453" fill="#84BE84" rx="3" ry="3" style="stroke:#038048;stroke-width:1.0;"/><text fill="#000000" font-family="sans-serif" font-size="14" lengthAdjust="spacing" textLength="133" x="122" y="80.292">displayMenu(): void</text></g><!--class MenuItem--><g id="elem_MenuItem"><rect codeLine="6" fill="#F1F1F1" height="96.8906" id="MenuItem" rx="2.5" ry="2.5" style="stroke:#181818;stroke-width:0.5;" width="120" x="357" y="559.68"/><ellipse cx="380.55" cy="575.68" fill="#A9DCDF" rx="11" ry="11" style="stroke:#181818;stroke-width:1.0;"/><path d="M380.6594,571.0238 L379.5031,576.1019 L381.8313,576.1019 L380.6594,571.0238 Z M379.175,568.7894 L382.1594,568.7894 L385.5188,581.18 L383.0656,581.18 L382.3,578.1175 L379.0188,578.1175 L378.2688,581.18 L375.8313,581.18 L379.175,568.7894 Z " fill="#000000"/><text fill="#000000" font-family="sans-serif" font-size="14" font-style="italic" lengthAdjust="spacing" textLength="69" x="396.45" y="580.5267">MenuItem</text><line style="stroke:#181818;stroke-width:0.5;" x1="358" x2="476" y1="591.68" y2="591.68"/><rect fill="none" height="6" style="stroke:#C82930;stroke-width:1.0;" width="6" x="365" y="602.3284"/><text fill="#000000" font-family="sans-serif" font-size="14" lengthAdjust="spacing" textLength="88" x="377" y="608.6751">name: String</text><rect fill="none" height="6" style="stroke:#C82930;stroke-width:1.0;" width="6" x="365" y="618.6253"/><text fill="#000000" font-family="sans-serif" font-size="14" lengthAdjust="spacing" textLength="91" x="377" y="624.972">price: double</text><line style="stroke:#181818;stroke-width:0.5;" x1="358" x2="476" y1="632.2738" y2="632.2738"/><ellipse cx="368" cy="645.9222" fill="#84BE84" rx="3" ry="3" style="stroke:#038048;stroke-width:1.0;"/><text fill="#000000" font-family="sans-serif" font-size="14" lengthAdjust="spacing" textLength="94" x="377" y="649.2689">display(): void</text></g><!--class FoodItem--><g id="elem_FoodItem"><rect codeLine="12" fill="#F1F1F1" height="80.5938" id="FoodItem" rx="2.5" ry="2.5" style="stroke:#181818;stroke-width:0.5;" width="135" x="257.5" y="716.57"/><ellipse cx="289.6" cy="732.57" fill="#ADD1B2" rx="11" ry="11" style="stroke:#181818;stroke-width:1.0;"/><path d="M292.5688,738.2106 Q291.9906,738.5075 291.35,738.6481 Q290.7094,738.8044 290.0063,738.8044 Q287.5063,738.8044 286.1781,737.1637 Q284.8656,735.5075 284.8656,732.3825 Q284.8656,729.2575 286.1781,727.6012 Q287.5063,725.945 290.0063,725.945 Q290.7094,725.945 291.35,726.1012 Q292.0063,726.2575 292.5688,726.5544 L292.5688,729.2731 Q291.9438,728.695 291.35,728.4294 Q290.7563,728.1481 290.1313,728.1481 Q288.7875,728.1481 288.1,729.2262 Q287.4125,730.2887 287.4125,732.3825 Q287.4125,734.4762 288.1,735.5544 Q288.7875,736.6169 290.1313,736.6169 Q290.7563,736.6169 291.35,736.3512 Q291.9438,736.07 292.5688,735.4919 L292.5688,738.2106 Z " fill="#000000"/><text fill="#000000" font-family="sans-serif" font-size="14" lengthAdjust="spacing" textLength="65" x="307.4" y="737.4167">FoodItem</text><line style="stroke:#181818;stroke-width:0.5;" x1="258.5" x2="391.5" y1="748.57" y2="748.57"/><rect fill="none" height="6" style="stroke:#C82930;stroke-width:1.0;" width="6" x="265.5" y="759.2184"/><text fill="#000000" font-family="sans-serif" font-size="14" lengthAdjust="spacing" textLength="109" x="277.5" y="765.5651">category: String</text><line style="stroke:#181818;stroke-width:0.5;" x1="258.5" x2="391.5" y1="772.8669" y2="772.8669"/><ellipse cx="268.5" cy="786.5153" fill="#84BE84" rx="3" ry="3" style="stroke:#038048;stroke-width:1.0;"/><text fill="#000000" font-family="sans-serif" font-size="14" lengthAdjust="spacing" textLength="94" x="277.5" y="789.862">display(): void</text></g><!--class DrinkItem--><g id="elem_DrinkItem"><rect codeLine="17" fill="#F1F1F1" height="80.5938" id="DrinkItem" rx="2.5" ry="2.5" style="stroke:#181818;stroke-width:0.5;" width="163" x="427.5" y="716.57"/><ellipse cx="471.75" cy="732.57" fill="#ADD1B2" rx="11" ry="11" style="stroke:#181818;stroke-width:1.0;"/><path d="M474.7188,738.2106 Q474.1406,738.5075 473.5,738.6481 Q472.8594,738.8044 472.1563,738.8044 Q469.6563,738.8044 468.3281,737.1637 Q467.0156,735.5075 467.0156,732.3825 Q467.0156,729.2575 468.3281,727.6012 Q469.6563,725.945 472.1563,725.945 Q472.8594,725.945 473.5,726.1012 Q474.1563,726.2575 474.7188,726.5544 L474.7188,729.2731 Q474.0938,728.695 473.5,728.4294 Q472.9063,728.1481 472.2813,728.1481 Q470.9375,728.1481 470.25,729.2262 Q469.5625,730.2887 469.5625,732.3825 Q469.5625,734.4762 470.25,735.5544 Q470.9375,736.6169 472.2813,736.6169 Q472.9063,736.6169 473.5,736.3512 Q474.0938,736.07 474.7188,735.4919 L474.7188,738.2106 Z " fill="#000000"/><text fill="#000000" font-family="sans-serif" font-size="14" lengthAdjust="spacing" textLength="66" x="492.25" y="737.4167">DrinkItem</text><line style="stroke:#181818;stroke-width:0.5;" x1="428.5" x2="589.5" y1="748.57" y2="748.57"/><rect fill="none" height="6" style="stroke:#C82930;stroke-width:1.0;" width="6" x="435.5" y="759.2184"/><text fill="#000000" font-family="sans-serif" font-size="14" lengthAdjust="spacing" textLength="137" x="447.5" y="765.5651">isAlcoholic: boolean</text><line style="stroke:#181818;stroke-width:0.5;" x1="428.5" x2="589.5" y1="772.8669" y2="772.8669"/><ellipse cx="438.5" cy="786.5153" fill="#84BE84" rx="3" ry="3" style="stroke:#038048;stroke-width:1.0;"/><text fill="#000000" font-family="sans-serif" font-size="14" lengthAdjust="spacing" textLength="94" x="447.5" y="789.862">display(): void</text></g><!--class OrderManagement--><g id="elem_OrderManagement"><rect codeLine="22" fill="#F1F1F1" height="129.4844" id="OrderManagement" rx="2.5" ry="2.5" style="stroke:#181818;stroke-width:0.5;" width="269" x="275.5" y="164.6"/><ellipse cx="340.75" cy="180.6" fill="#B4A7E5" rx="11" ry="11" style="stroke:#181818;stroke-width:1.0;"/><path d="M336.6719,176.3656 L336.6719,174.2094 L344.0625,174.2094 L344.0625,176.3656 L341.5938,176.3656 L341.5938,184.4438 L344.0625,184.4438 L344.0625,186.6 L336.6719,186.6 L336.6719,184.4438 L339.1406,184.4438 L339.1406,176.3656 L336.6719,176.3656 Z " fill="#000000"/><text fill="#000000" font-family="sans-serif" font-size="14" font-style="italic" lengthAdjust="spacing" textLength="130" x="361.25" y="185.4467">OrderManagement</text><line style="stroke:#181818;stroke-width:0.5;" x1="276.5" x2="543.5" y1="196.6" y2="196.6"/><line style="stroke:#181818;stroke-width:0.5;" x1="276.5" x2="543.5" y1="204.6" y2="204.6"/><ellipse cx="286.5" cy="218.2484" fill="#84BE84" rx="3" ry="3" style="stroke:#038048;stroke-width:1.0;"/><text fill="#000000" font-family="sans-serif" font-size="14" lengthAdjust="spacing" textLength="172" x="295.5" y="221.5951">addItem(MenuItem): void</text><ellipse cx="286.5" cy="234.5453" fill="#84BE84" rx="3" ry="3" style="stroke:#038048;stroke-width:1.0;"/><text fill="#000000" font-family="sans-serif" font-size="14" lengthAdjust="spacing" textLength="161" x="295.5" y="237.892">deleteItem(String): void</text><ellipse cx="286.5" cy="250.8422" fill="#84BE84" rx="3" ry="3" style="stroke:#038048;stroke-width:1.0;"/><text fill="#000000" font-family="sans-serif" font-size="14" lengthAdjust="spacing" textLength="243" x="295.5" y="254.1889">updateItem(String, MenuItem): void</text><ellipse cx="286.5" cy="267.1391" fill="#84BE84" rx="3" ry="3" style="stroke:#038048;stroke-width:1.0;"/><text fill="#000000" font-family="sans-serif" font-size="14" lengthAdjust="spacing" textLength="133" x="295.5" y="270.4857">displayOrder(): void</text><ellipse cx="286.5" cy="283.4359" fill="#84BE84" rx="3" ry="3" style="stroke:#038048;stroke-width:1.0;"/><text fill="#000000" font-family="sans-serif" font-size="14" lengthAdjust="spacing" textLength="162" x="295.5" y="286.7826">calculateTotal(): double</text></g><!--class Order--><g id="elem_Order"><rect codeLine="30" fill="#F1F1F1" height="64.2969" id="Order" rx="2.5" ry="2.5" style="stroke:#181818;stroke-width:0.5;" width="189" x="192.5" y="418.38"/><ellipse cx="263.25" cy="434.38" fill="#ADD1B2" rx="11" ry="11" style="stroke:#181818;stroke-width:1.0;"/><path d="M266.2188,440.0206 Q265.6406,440.3175 265,440.4581 Q264.3594,440.6144 263.6563,440.6144 Q261.1563,440.6144 259.8281,438.9738 Q258.5156,437.3175 258.5156,434.1925 Q258.5156,431.0675 259.8281,429.4113 Q261.1563,427.755 263.6563,427.755 Q264.3594,427.755 265,427.9113 Q265.6563,428.0675 266.2188,428.3644 L266.2188,431.0831 Q265.5938,430.505 265,430.2394 Q264.4063,429.9581 263.7813,429.9581 Q262.4375,429.9581 261.75,431.0363 Q261.0625,432.0988 261.0625,434.1925 Q261.0625,436.2863 261.75,437.3644 Q262.4375,438.4269 263.7813,438.4269 Q264.4063,438.4269 265,438.1613 Q265.5938,437.88 266.2188,437.3019 L266.2188,440.0206 Z " fill="#000000"/><text fill="#000000" font-family="sans-serif" font-size="14" lengthAdjust="spacing" textLength="39" x="283.75" y="439.2267">Order</text><line style="stroke:#181818;stroke-width:0.5;" x1="193.5" x2="380.5" y1="450.38" y2="450.38"/><rect fill="none" height="6" style="stroke:#C82930;stroke-width:1.0;" width="6" x="200.5" y="461.0284"/><text fill="#000000" font-family="sans-serif" font-size="14" lengthAdjust="spacing" textLength="163" x="212.5" y="467.3751">items: List&lt;MenuItem&gt;</text><line style="stroke:#181818;stroke-width:0.5;" x1="193.5" x2="380.5" y1="474.6769" y2="474.6769"/></g><!--class Customer--><g id="elem_Customer"><rect codeLine="34" fill="#F1F1F1" height="96.8906" id="Customer" rx="2.5" ry="2.5" style="stroke:#181818;stroke-width:0.5;" width="114" x="7" y="180.89"/><ellipse cx="28.3" cy="196.89" fill="#ADD1B2" rx="11" ry="11" style="stroke:#181818;stroke-width:1.0;"/><path d="M31.2688,202.5306 Q30.6906,202.8275 30.05,202.9681 Q29.4094,203.1244 28.7063,203.1244 Q26.2063,203.1244 24.8781,201.4838 Q23.5656,199.8275 23.5656,196.7025 Q23.5656,193.5775 24.8781,191.9213 Q26.2063,190.265 28.7063,190.265 Q29.4094,190.265 30.05,190.4213 Q30.7063,190.5775 31.2688,190.8744 L31.2688,193.5931 Q30.6438,193.015 30.05,192.7494 Q29.4563,192.4681 28.8313,192.4681 Q27.4875,192.4681 26.8,193.5463 Q26.1125,194.6088 26.1125,196.7025 Q26.1125,198.7963 26.8,199.8744 Q27.4875,200.9369 28.8313,200.9369 Q29.4563,200.9369 30.05,200.6713 Q30.6438,200.39 31.2688,199.8119 L31.2688,202.5306 Z " fill="#000000"/><text fill="#000000" font-family="sans-serif" font-size="14" lengthAdjust="spacing" textLength="68" x="43.7" y="201.7367">Customer</text><line style="stroke:#181818;stroke-width:0.5;" x1="8" x2="120" y1="212.89" y2="212.89"/><rect fill="none" height="6" style="stroke:#C82930;stroke-width:1.0;" width="6" x="15" y="223.5384"/><text fill="#000000" font-family="sans-serif" font-size="14" lengthAdjust="spacing" textLength="88" x="27" y="229.8851">name: String</text><rect fill="none" height="6" style="stroke:#C82930;stroke-width:1.0;" width="6" x="15" y="239.8353"/><text fill="#000000" font-family="sans-serif" font-size="14" lengthAdjust="spacing" textLength="83" x="27" y="246.182">TableNo: int</text><rect fill="none" height="6" style="stroke:#C82930;stroke-width:1.0;" width="6" x="15" y="256.1322"/><text fill="#000000" font-family="sans-serif" font-size="14" lengthAdjust="spacing" textLength="85" x="27" y="262.4789">order: Order</text><line style="stroke:#181818;stroke-width:0.5;" x1="8" x2="120" y1="269.7806" y2="269.7806"/></g><!--class FileManager--><g id="elem_FileManager"><rect codeLine="40" fill="#F1F1F1" height="64.2969" id="FileManager" rx="2.5" ry="2.5" style="stroke:#181818;stroke-width:0.5;" width="269" x="438.5" y="324.08"/><ellipse cx="527.25" cy="340.08" fill="#ADD1B2" rx="11" ry="11" style="stroke:#181818;stroke-width:1.0;"/><path d="M530.2188,345.7206 Q529.6406,346.0175 529,346.1581 Q528.3594,346.3144 527.6563,346.3144 Q525.1563,346.3144 523.8281,344.6738 Q522.5156,343.0175 522.5156,339.8925 Q522.5156,336.7675 523.8281,335.1113 Q525.1563,333.455 527.6563,333.455 Q528.3594,333.455 529,333.6113 Q529.6563,333.7675 530.2188,334.0644 L530.2188,336.7831 Q529.5938,336.205 529,335.9394 Q528.4063,335.6581 527.7813,335.6581 Q526.4375,335.6581 525.75,336.7363 Q525.0625,337.7988 525.0625,339.8925 Q525.0625,341.9863 525.75,343.0644 Q526.4375,344.1269 527.7813,344.1269 Q528.4063,344.1269 529,343.8613 Q529.5938,343.58 530.2188,343.0019 L530.2188,345.7206 Z " fill="#000000"/><text fill="#000000" font-family="sans-serif" font-size="14" lengthAdjust="spacing" textLength="83" x="547.75" y="344.9267">FileManager</text><line style="stroke:#181818;stroke-width:0.5;" x1="439.5" x2="706.5" y1="356.08" y2="356.08"/><line style="stroke:#181818;stroke-width:0.5;" x1="439.5" x2="706.5" y1="364.08" y2="364.08"/><ellipse cx="449.5" cy="377.7284" fill="#84BE84" rx="3" ry="3" style="stroke:#038048;stroke-width:1.0;"/><text fill="#000000" font-family="sans-serif" font-size="14" lengthAdjust="spacing" textLength="243" x="458.5" y="381.0751">loadMenu(String): List&lt;MenuItem&gt;</text></g><!--reverse link OrderManagement to Order--><g id="link_OrderManagement_Order"><path d="M365.2807,310.027 C342.4507,350.707 322.7,385.91 304.65,418.08 " fill="none" id="OrderManagement-backto-Order" style="stroke:#181818;stroke-width:1.0;stroke-dasharray:7.0,7.0;"/><polygon fill="none" points="374.09,294.33,360.0484,307.0906,370.513,312.9634,374.09,294.33" style="stroke:#181818;stroke-width:1.0;"/></g><!--link FoodOrderingSystem to FileManager--><g id="link_FoodOrderingSystem_FileManager"><path codeLine="44" d="M280.46,64.32 C378.69,83.88 527.18,119.95 562,164.6 C597.68,210.35 590.9485,276.7571 582.3385,317.9171 " fill="none" id="FoodOrderingSystem-to-FileManager" style="stroke:#181818;stroke-width:1.0;"/><polygon fill="#181818" points="581.11,323.79,586.868,315.7997,582.1338,318.8959,579.0375,314.1617,581.11,323.79" style="stroke:#181818;stroke-width:1.0;"/><text fill="#000000" font-family="sans-serif" font-size="13" lengthAdjust="spacing" textLength="30" x="520" y="130.6669">uses</text></g><!--link FoodOrderingSystem to Customer--><g id="link_FoodOrderingSystem_Customer"><path codeLine="45" d="M141.81,87.78 C132.18,96.92 122.7,107.08 115,117.6 C101.07,136.65 91.9081,154.5717 83.3981,174.9917 " fill="none" id="FoodOrderingSystem-to-Customer" style="stroke:#181818;stroke-width:1.0;"/><polygon fill="#181818" points="81.09,180.53,88.2443,173.7613,83.0134,175.9147,80.8599,170.6838,81.09,180.53" style="stroke:#181818;stroke-width:1.0;"/><text fill="#000000" font-family="sans-serif" font-size="13" lengthAdjust="spacing" textLength="48" x="116" y="130.6669">creates</text></g><!--link FoodOrderingSystem to Order--><g id="link_FoodOrderingSystem_Order"><path codeLine="46" d="M188.95,87.85 C187.47,137.1 188.46,223.38 208,294.08 C220.62,339.75 244.1639,382.5734 263.0239,412.9334 " fill="none" id="FoodOrderingSystem-to-Order" style="stroke:#181818;stroke-width:1.0;"/><polygon fill="#181818" points="266.19,418.03,264.8386,408.2743,263.5516,413.7828,258.0431,412.4958,266.19,418.03" style="stroke:#181818;stroke-width:1.0;"/><text fill="#000000" font-family="sans-serif" font-size="13" lengthAdjust="spacing" textLength="48" x="209" y="233.9069">creates</text></g><!--link Customer to Order--><g id="link_Customer_Order"><path codeLine="47" d="M76.88,278.03 C88.38,312.63 108.39,358.44 140,388.38 C154.85,402.45 167.9397,411.003 186.7997,419.593 " fill="none" id="Customer-to-Order" style="stroke:#181818;stroke-width:1.0;"/><polygon fill="#181818" points="192.26,422.08,185.7275,414.7093,187.7097,420.0075,182.4116,421.9898,192.26,422.08" style="stroke:#181818;stroke-width:1.0;"/><text fill="#000000" font-family="sans-serif" font-size="13" lengthAdjust="spacing" textLength="23" x="141" y="360.7969">has</text></g><!--link Order to MenuItem--><g id="link_Order_MenuItem"><path codeLine="48" d="M313.31,483.01 C331.63,504.95 352.5627,529.9958 373.3027,554.8158 " fill="none" id="Order-to-MenuItem" style="stroke:#181818;stroke-width:1.0;"/><polygon fill="#181818" points="377.15,559.42,374.4485,549.9489,373.9439,555.5832,368.3096,555.0786,377.15,559.42" style="stroke:#181818;stroke-width:1.0;"/><text fill="#000000" font-family="sans-serif" font-size="13" lengthAdjust="spacing" textLength="54" x="353" y="525.7469">contains</text></g><!--link FileManager to MenuItem--><g id="link_FileManager_MenuItem"><path codeLine="49" d="M553.4,388.63 C526.56,431.62 481.307,504.1101 449.967,554.3201 " fill="none" id="FileManager-to-MenuItem" style="stroke:#181818;stroke-width:1.0;"/><polygon fill="#181818" points="446.79,559.41,454.9487,553.8932,449.4375,555.1684,448.1622,549.6572,446.79,559.41" style="stroke:#181818;stroke-width:1.0;"/><text fill="#000000" font-family="sans-serif" font-size="13" lengthAdjust="spacing" textLength="55" x="534" y="455.0969">depends</text></g><!--reverse link MenuItem to FoodItem--><g id="link_MenuItem_FoodItem"><path codeLine="52" d="M377.568,672.0102 C365.498,691.2602 361.3,697.96 349.8,716.31 " fill="none" id="MenuItem-backto-FoodItem" style="stroke:#181818;stroke-width:1.0;"/><polygon fill="none" points="387.13,656.76,372.4846,668.8228,382.6513,675.1975,387.13,656.76" style="stroke:#181818;stroke-width:1.0;"/></g><!--reverse link MenuItem to DrinkItem--><g id="link_MenuItem_DrinkItem"><path codeLine="53" d="M456.432,672.0102 C468.502,691.2602 472.7,697.96 484.2,716.31 " fill="none" id="MenuItem-backto-DrinkItem" style="stroke:#181818;stroke-width:1.0;"/><polygon fill="none" points="446.87,656.76,451.3487,675.1975,461.5154,668.8228,446.87,656.76" style="stroke:#181818;stroke-width:1.0;"/></g><!--SRC=[TPF1JiCm38RlUGeVDus-G3HDGY0a90Q7xOOuU8df8jAaIbAa2NXtqeHcxLXxglpRdt-xhj3eFJnOAr-S9ATClJlvG0ryCOZFga5b5hlG2wzlWAxsoon8vLkDfosPRh7ay6cLP3-CuS47XoA0IE1UVZpZAeCDSSYy76cT4Z4aRNVGD46FiQBO7DC41ggjEqs8y-NtCUTZNA_yhHRsQBKI70xMQa8por0ca7j7GP0sjKM3DJLamh0gbCdSOfXvgCr0qXGewTdhHErQYHFr1gvJigraO35H16hHwGZPsu2wr_usMgPFHQ2QLYVNVcQCIiMcdiEJyc4zcDYSCNUT3xQ9fDalkiVOzzboY1lB4TjtuhdXw6igJRdz05jfYp9TLDdHVnjNRhMgDXCQXywJdyii4t0GZkBAPZFpoivffN8i7j6p_Dv7oy77Acj2_7iYVMJj8aTIIqPwnbW9hh-hgbpwHRXSy2y0]--></g></svg>